<svg width="14" height="14" viewBox="0 0 14 14" fill="none" xmlns="http://www.w3.org/2000/svg">
<path d="M5.1997 1.2001C5.1997 1.04097 5.13648 0.888355 5.02396 0.775834C4.91144 0.663312 4.75883 0.600098 4.5997 0.600098C4.44057 0.600098 4.28795 0.663312 4.17543 0.775834C4.06291 0.888355 3.9997 1.04097 3.9997 1.2001V2.2065C3.03662 2.22805 2.07545 2.30229 1.1205 2.4289C1.04239 2.4393 0.96709 2.46498 0.898906 2.50448C0.830721 2.54398 0.770985 2.59653 0.723107 2.65911C0.675229 2.7217 0.640148 2.7931 0.619865 2.86925C0.599583 2.94539 0.594496 3.02479 0.604897 3.1029C0.615298 3.18101 0.640982 3.2563 0.680482 3.32449C0.719983 3.39267 0.772526 3.45241 0.835113 3.50029C0.897699 3.54817 0.969104 3.58325 1.04525 3.60353C1.12139 3.62381 1.20079 3.6289 1.2789 3.6185C2.83016 3.41296 4.39715 3.3519 5.9597 3.4361C5.6285 4.55447 5.17229 5.63194 4.5997 6.6481C4.29988 6.11798 4.0322 5.57033 3.7981 5.0081C3.73409 4.86545 3.61693 4.75343 3.47156 4.69587C3.3262 4.63831 3.16411 4.63977 3.0198 4.69994C2.87549 4.7601 2.76037 4.87421 2.69894 5.01799C2.63751 5.16176 2.63462 5.32383 2.6909 5.4697C3.02765 6.27554 3.42672 7.0539 3.8845 7.7977C3.02952 9.04749 1.99801 10.1668 0.822097 11.1209C0.758223 11.1696 0.704781 11.2306 0.664939 11.3004C0.625098 11.3702 0.599668 11.4472 0.590157 11.527C0.580647 11.6067 0.58725 11.6876 0.609575 11.7647C0.6319 11.8419 0.669492 11.9138 0.720122 11.9762C0.770753 12.0385 0.83339 12.0901 0.90432 12.1278C0.97525 12.1655 1.05303 12.1886 1.13304 12.1957C1.21306 12.2027 1.29368 12.1937 1.37013 12.169C1.44658 12.1444 1.5173 12.1046 1.5781 12.0521C2.72042 11.1265 3.7363 10.0549 4.5997 8.8649C4.67596 8.9705 4.7533 9.07476 4.8317 9.1777C4.92824 9.30437 5.07114 9.3875 5.22897 9.4088C5.3868 9.4301 5.54663 9.38784 5.6733 9.2913C5.79996 9.19476 5.88309 9.05186 5.9044 8.89402C5.9257 8.73619 5.88344 8.57637 5.7869 8.4497C5.6237 8.23636 5.46636 8.01903 5.3149 7.7977C6.132 6.46935 6.76017 5.0337 7.1813 3.5321C7.4293 3.55716 7.6757 3.58596 7.9205 3.6185C8.07825 3.6395 8.23788 3.59698 8.36428 3.50029C8.49068 3.40359 8.57349 3.26065 8.5945 3.1029C8.6155 2.94515 8.57298 2.78551 8.47629 2.65911C8.37959 2.53271 8.23665 2.4499 8.0789 2.4289C7.12394 2.30229 6.16277 2.22805 5.1997 2.2065V1.2001Z" fill="#6B570B"/>
<path fill-rule="evenodd" clip-rule="evenodd" d="M9.39954 5.40015C9.51103 5.40015 9.62031 5.43122 9.71513 5.48986C9.80994 5.5485 9.88655 5.6324 9.93634 5.73215L13.3363 12.5321C13.3723 12.6027 13.3939 12.6797 13.3999 12.7587C13.4059 12.8376 13.3963 12.917 13.3715 12.9922C13.3467 13.0674 13.3072 13.1369 13.2554 13.1968C13.2036 13.2567 13.1405 13.3058 13.0696 13.3411C12.9988 13.3765 12.9216 13.3975 12.8426 13.4029C12.7636 13.4083 12.6844 13.398 12.6093 13.3727C12.5343 13.3473 12.4651 13.3073 12.4056 13.2551C12.3461 13.2028 12.2976 13.1393 12.2627 13.0681L11.6291 11.8001H7.17074L6.53634 13.0681C6.50153 13.1393 6.45297 13.2028 6.39349 13.2551C6.334 13.3073 6.26476 13.3473 6.18975 13.3727C6.11474 13.398 6.03545 13.4083 5.95645 13.4029C5.87745 13.3975 5.8003 13.3765 5.72945 13.3411C5.65861 13.3058 5.59546 13.2567 5.54366 13.1968C5.49186 13.1369 5.45242 13.0674 5.42763 12.9922C5.40284 12.917 5.39317 12.8376 5.3992 12.7587C5.40523 12.6797 5.42682 12.6027 5.46274 12.5321L8.86275 5.73215C8.91254 5.6324 8.98914 5.5485 9.08396 5.48986C9.17878 5.43122 9.28806 5.40015 9.39954 5.40015ZM11.0291 10.6001L9.39954 7.34175L7.77074 10.6001H11.0291Z" fill="#6B570B"/>
</svg>
