<svg width="14" height="16" viewBox="0 0 14 16" fill="none" xmlns="http://www.w3.org/2000/svg">
<path d="M10.0069 3.1785H8.48002V3.14507L10.04 1.08936C10.1809 0.908213 10.2343 0.794498 10.2343 0.673927C10.2343 0.466498 10.0737 0.339355 9.8526 0.339355H7.70317C7.50231 0.339355 7.34831 0.473355 7.34831 0.680784C7.34831 0.901641 7.50231 1.02907 7.70317 1.02907H9.14288V1.0625L7.5626 3.11164C7.42202 3.29907 7.36831 3.39278 7.36831 3.53336C7.36831 3.72764 7.5226 3.87478 7.74345 3.87478H10.0066C10.2077 3.87478 10.3552 3.74107 10.3552 3.51993C10.3552 3.31907 10.208 3.1785 10.0069 3.1785ZM13.1403 5.74335H12.0629V5.7165L13.1743 4.26336C13.3015 4.08907 13.3552 3.98878 13.3552 3.86821C13.3552 3.67393 13.2012 3.54678 12.9937 3.54678H11.3529C11.1655 3.54678 11.0249 3.68078 11.0249 3.87507C11.0249 4.0825 11.1655 4.20964 11.3529 4.20964H12.324V4.2365L11.2192 5.68307C11.0917 5.84364 11.0449 5.95078 11.0449 6.08478C11.0449 6.26564 11.1855 6.40621 11.3935 6.40621H13.1409C13.3352 6.40621 13.4692 6.27907 13.4692 6.07136C13.4692 5.87707 13.3346 5.74335 13.1403 5.74335ZM6.38431 15.6605C8.83517 15.6605 10.8172 14.4285 11.7215 12.3325C11.8417 12.0445 11.8015 11.8236 11.6743 11.6896C11.5537 11.5759 11.3529 11.5491 11.112 11.6428C10.6097 11.8436 9.99374 11.9576 9.22345 11.9576C6.23031 11.9576 4.30174 10.0891 4.30174 7.14936C4.30174 6.33936 4.45574 5.53564 4.66317 5.11364C4.79745 4.84593 4.78374 4.61821 4.67002 4.47764C4.5426 4.33021 4.31517 4.28336 4.00031 4.4105C1.9446 5.24764 0.531738 7.3905 0.531738 9.89507C0.531738 13.1562 2.92888 15.6605 6.38431 15.6605ZM6.39774 14.6431C3.53831 14.6431 1.54917 12.5602 1.54917 9.81507C1.54917 8.69532 1.89415 7.66412 2.49008 6.81917C2.75388 6.44513 3.3405 6.78042 3.32699 7.23793C3.32502 7.30459 3.32402 7.37126 3.32402 7.43764C3.32402 10.7325 5.60088 12.9422 8.96917 12.9422C9.41085 12.9422 9.72917 13.5197 9.36433 13.7686C8.5498 14.3245 7.51398 14.6431 6.39774 14.6431ZM10.1877 8.03364H9.2706V8.00678L10.2146 6.75478C10.3352 6.5805 10.3889 6.49364 10.3889 6.37964C10.3889 6.18536 10.2415 6.07164 10.0472 6.07164H8.60088C8.42002 6.07164 8.28602 6.19878 8.28602 6.3865C8.28602 6.58078 8.42002 6.70107 8.60088 6.70107H9.40431V6.72793L8.47345 7.97364C8.35288 8.13421 8.30602 8.22793 8.30602 8.35507C8.30602 8.52936 8.44031 8.6565 8.63431 8.6565H10.1877C10.3686 8.6565 10.4957 8.53593 10.4957 8.34164C10.4957 8.15421 10.3686 8.03364 10.1877 8.03364Z" fill="#6B570B"/>
</svg>
