<svg width="80" height="80" viewBox="0 0 80 80" fill="none" xmlns="http://www.w3.org/2000/svg">
<path d="M39.4343 23.2229C39.2147 23.2229 39.0366 23.0447 39.0366 22.8252V20.3589C39.0366 20.1394 39.2147 19.9611 39.4343 19.9611C39.6539 19.9611 39.832 20.1394 39.832 20.3589V22.8252C39.832 23.0447 39.6539 23.2229 39.4343 23.2229Z" fill="#6B570B"/>
<path d="M30.468 25.5912C30.2777 25.701 30.0345 25.6358 29.9246 25.4456L28.6915 23.3097C28.5817 23.1194 28.6469 22.8763 28.8371 22.7664C29.0274 22.6566 29.2706 22.7218 29.3805 22.9121L30.6136 25.0476C30.7234 25.2379 30.6583 25.4813 30.468 25.5912Z" fill="#6B570B"/>
<path d="M23.8883 32.1247C23.7785 32.3148 23.5352 32.38 23.345 32.2702L21.2092 31.0371C21.019 30.9273 20.9538 30.6841 21.0636 30.4937C21.1735 30.3036 21.4167 30.2384 21.607 30.3482L23.7427 31.5812C23.933 31.691 23.9982 31.9343 23.8883 32.1247Z" fill="#6B570B"/>
<path d="M21.4565 41.073C21.4565 41.2926 21.2784 41.4707 21.0587 41.4707H18.5926C18.3729 41.4707 18.1948 41.2926 18.1948 41.073C18.1948 40.8531 18.3729 40.675 18.5926 40.675H21.0587C21.2784 40.675 21.4565 40.8531 21.4565 41.073Z" fill="#6B570B"/>
<path d="M23.8253 50.0386C23.9352 50.2287 23.87 50.472 23.6797 50.5818L21.544 51.8151C21.3537 51.9249 21.1104 51.8597 21.0006 51.6693C20.8908 51.4792 20.956 51.236 21.1462 51.1262L23.282 49.8928C23.4722 49.783 23.7155 49.8482 23.8253 50.0386Z" fill="#6B570B"/>
<path d="M30.3591 56.6186C30.5493 56.7284 30.6145 56.9717 30.5047 57.1621L29.2716 59.2978C29.1618 59.4878 28.9185 59.5531 28.7283 59.4433C28.538 59.3335 28.4728 59.0902 28.5827 58.8998L29.8157 56.7641C29.9256 56.574 30.1689 56.5088 30.3591 56.6186Z" fill="#6B570B"/>
<path d="M39.3077 59.0503C39.5273 59.0503 39.7053 59.2284 39.7053 59.448V61.9143C39.7053 62.1339 39.5273 62.312 39.3077 62.312C39.0881 62.312 38.9097 62.1339 38.9097 61.9143V59.448C38.9097 59.2284 39.0881 59.0503 39.3077 59.0503Z" fill="#6B570B"/>
<path d="M48.2733 56.6818C48.4634 56.572 48.7067 56.6372 48.8165 56.8273L50.0498 58.9633C50.1596 59.1534 50.0944 59.3967 49.904 59.5065C49.7139 59.6163 49.4707 59.5511 49.3609 59.361L48.1275 57.2253C48.0177 57.0349 48.0829 56.7916 48.2733 56.6818Z" fill="#6B570B"/>
<path d="M54.8533 50.1482C54.9629 49.9579 55.2062 49.8929 55.3965 50.0028L57.5323 51.2358C57.7224 51.3456 57.7876 51.5888 57.6779 51.7792C57.5679 51.9693 57.3247 52.0345 57.1347 51.9247L54.9985 50.6917C54.8085 50.5819 54.7433 50.3386 54.8533 50.1482Z" fill="#6B570B"/>
<path d="M57.2847 41.199C57.2847 40.9795 57.4626 40.8012 57.6821 40.8012H60.1485C60.3683 40.8012 60.5463 40.9795 60.5463 41.199C60.5463 41.4186 60.3683 41.5967 60.1485 41.5967H57.6821C57.4626 41.5967 57.2847 41.4186 57.2847 41.199Z" fill="#6B570B"/>
<path d="M48.3823 25.6536C48.1923 25.5439 48.1272 25.3004 48.2369 25.1104L49.47 22.9746C49.5797 22.7843 49.8232 22.7191 50.0135 22.8289C50.2035 22.9389 50.2687 23.182 50.1589 23.3724L48.9258 25.5082C48.8161 25.6982 48.573 25.7636 48.3823 25.6536Z" fill="#6B570B"/>
<path d="M69.931 26.2007L67.5719 36.2753C67.3503 37.2237 66.2934 37.7083 65.43 37.2575L56.2564 32.4709C55.1568 31.8973 55.1974 30.3099 56.3245 29.7926L58.6968 28.705C58.0605 27.6556 57.3444 26.6486 56.525 25.7366C53.9907 22.7889 50.5395 20.3306 46.8304 19.1039C46.6268 19.0366 46.3444 18.937 46.1408 18.8681C32.2468 14.4032 17.6564 23.7137 15.6055 38.1232C13.8393 50.1621 21.4407 61.6895 33.1314 64.9832C48.6366 69.3705 65.0215 57.8358 65.1647 41.4994C65.1726 40.9399 65.6346 40.4927 66.1942 40.5044C66.7388 40.5158 67.1739 40.9586 67.1817 41.4994C67.3349 48.2525 64.7903 55.0034 60.2049 59.9709C50.6557 70.4556 34.4649 72.4544 22.8119 64.2432C14.0168 58.1553 9.35522 47.4525 10.8004 36.8566C13.5368 16.9785 34.8401 5.8319 52.8388 14.519C55.5387 15.8353 58.0592 17.5642 60.2448 19.6257C62.1576 21.4294 63.8446 23.4746 65.2303 25.7092L67.8567 24.5049C68.9842 23.9877 70.2137 24.9931 69.931 26.2007Z" fill="#6B570B"/>
<path d="M31.3933 31.6726C31.8051 31.1227 32.3489 30.6899 33.0247 30.3741C33.7004 30.0585 34.4575 29.9007 35.2961 29.9007C36.0605 29.9007 36.7412 30.0278 37.338 30.2818C37.935 30.5358 38.4046 30.8874 38.7475 31.3361C39.0902 31.7849 39.2618 32.3077 39.2618 32.9047C39.2618 33.2449 39.2147 33.5619 39.1212 33.8554C39.0274 34.1488 38.8684 34.4397 38.6439 34.7282C38.4194 35.0167 38.1124 35.3277 37.7227 35.6604C37.3331 35.9935 36.8424 36.3721 36.2505 36.7963L34.1123 38.335L34.1049 38.3944H38.2926L37.7895 40.762H29.4512L29.9247 38.609L34.2233 35.4645C34.608 35.1785 34.9286 34.9318 35.1851 34.7245C35.4415 34.5175 35.645 34.3315 35.7955 34.166C35.9459 34.0008 36.0519 33.8431 36.1136 33.6927C36.1753 33.542 36.2061 33.3829 36.2061 33.2153C36.2061 33.0228 36.158 32.8552 36.0618 32.7122C35.9656 32.5691 35.8325 32.4581 35.6623 32.3794C35.4921 32.3003 35.2961 32.261 35.0741 32.261C34.8126 32.261 34.5759 32.3102 34.3639 32.4089C34.1517 32.5076 33.9741 32.6531 33.8312 32.8453C33.6881 33.0379 33.5894 33.2744 33.5352 33.5558C33.0666 33.5558 32.5967 33.5558 32.1258 33.5558C31.6547 33.5558 31.1824 33.5558 30.7089 33.5558C30.7533 32.8502 30.9814 32.2228 31.3933 31.6726Z" fill="#6B570B"/>
<path d="M42.3835 36.8999H45.1063L46.0976 32.2388H46.0385C45.846 32.4556 45.6452 32.6875 45.4354 32.9342C45.2259 33.1809 45.0125 33.4362 44.7957 33.7C44.5785 33.9639 44.3626 34.2303 44.1482 34.4991C43.9336 34.7679 43.7238 35.0367 43.5193 35.3055C43.3144 35.5743 43.1173 35.8382 42.9275 36.0972C42.7375 36.3561 42.5585 36.6037 42.3908 36.8406L42.3835 36.8999ZM44.5293 39.1786H39.2393L39.772 36.4632C39.9986 36.1476 40.2305 35.8345 40.4674 35.5236C40.7042 35.2129 40.9484 34.8974 41.2 34.5766C41.4512 34.2561 41.7151 33.9255 41.9913 33.5853C42.2675 33.2448 42.56 32.8912 42.8682 32.5236C43.1764 32.1561 43.5033 31.7701 43.8484 31.3656C44.1938 30.9612 44.5613 30.5346 44.951 30.0856H49.4269L47.9992 36.7815H49.2716L48.7611 39.1786H47.4887L47.1556 40.762H44.1962L44.5293 39.1786Z" fill="#6B570B"/>
<path d="M29.8501 50.7659L30.2877 48.7049H28.3183L27.8772 50.7659H26.5537L27.6372 45.673H28.9607L28.5301 47.6776H30.503L30.9336 45.673H32.257L31.1736 50.7659H29.8501Z" fill="#6B570B"/>
<path d="M34.5511 46.7883C34.3769 46.8895 34.224 47.0301 34.0922 47.21C33.9605 47.3899 33.8581 47.5982 33.7852 47.8347C33.7122 48.0712 33.6758 48.3258 33.6758 48.5987C33.6758 48.841 33.7164 49.0529 33.7976 49.2341C33.8787 49.4152 33.994 49.5552 34.1434 49.6539C34.2928 49.7529 34.4687 49.8021 34.671 49.8021C34.871 49.8021 35.0587 49.7517 35.234 49.6505C35.4092 49.5493 35.5622 49.4088 35.6928 49.2288C35.8234 49.0486 35.9257 48.8401 35.9999 48.6023C36.074 48.3646 36.111 48.1106 36.111 47.8399C36.111 47.5929 36.0698 47.3795 35.9875 47.1992C35.9051 47.0193 35.7892 46.8806 35.6399 46.7828C35.4904 46.6853 35.3146 46.6364 35.1122 46.6364C34.9122 46.6364 34.7251 46.6872 34.5511 46.7883ZM33.4182 50.5717C33.077 50.3834 32.8152 50.1251 32.6329 49.7969C32.4505 49.4687 32.3594 49.0941 32.3594 48.6728C32.3594 48.2188 32.4305 47.803 32.5729 47.4253C32.7152 47.0476 32.9129 46.7219 33.1658 46.4476C33.4187 46.1735 33.714 45.9613 34.0517 45.8106C34.3893 45.6599 34.7522 45.5849 35.1404 45.5849C35.6228 45.5849 36.0339 45.6796 36.3739 45.8687C36.7139 46.0582 36.9739 46.3165 37.1539 46.6435C37.3338 46.9707 37.4239 47.3447 37.4239 47.7658C37.4239 48.2222 37.3526 48.6393 37.2105 49.0169C37.068 49.3946 36.8692 49.7206 36.6139 49.9947C36.3586 50.2687 36.0621 50.4803 35.7246 50.6298C35.3869 50.7793 35.024 50.854 34.6358 50.854C34.1651 50.854 33.7593 50.7599 33.4182 50.5717Z" fill="#6B570B"/>
<path d="M38.885 50.635C38.5743 50.4892 38.336 50.2893 38.1702 50.0353C38.0044 49.7809 37.9214 49.4906 37.9214 49.1633C37.9214 49.0929 37.9248 49.0206 37.9318 48.9465C37.9389 48.8724 37.9506 48.7976 37.9672 48.7223L38.6131 45.6728H39.9082L39.2694 48.7011C39.2577 48.7598 39.2485 48.8158 39.2414 48.8687C39.2344 48.9216 39.2319 48.973 39.2344 49.0222C39.2365 49.1729 39.2731 49.303 39.3436 49.4122C39.4143 49.5216 39.5124 49.6059 39.6382 49.6647C39.7643 49.7234 39.9095 49.7529 40.0743 49.7529C40.2459 49.7529 40.3976 49.7194 40.5295 49.6524C40.6611 49.5853 40.7719 49.4857 40.8614 49.354C40.9506 49.2224 41.0155 49.0621 41.0554 48.8739L41.733 45.6728H43.0318L42.294 49.1563C42.2189 49.5118 42.0759 49.8157 41.8652 50.0688C41.6549 50.3216 41.3901 50.5157 41.0711 50.651C40.7525 50.7863 40.3954 50.854 40.0002 50.854C39.5672 50.854 39.1953 50.7811 38.885 50.635Z" fill="#6B570B"/>
<path d="M44.634 48.0695H45.4352C45.6213 48.0695 45.7833 48.0353 45.9224 47.9671C46.0611 47.8991 46.1681 47.8037 46.2435 47.6813C46.3188 47.5589 46.3563 47.419 46.3563 47.2612C46.3563 47.0613 46.2964 46.9097 46.1764 46.806C46.0565 46.7024 45.8858 46.6507 45.6646 46.6507H44.9412L44.634 48.0695ZM43.8506 45.673H46.0211C46.3693 45.673 46.6657 45.7372 46.9106 45.8655C47.1551 45.9937 47.3418 46.1684 47.47 46.3896C47.5983 46.6107 47.6622 46.8648 47.6622 47.1517C47.6622 47.399 47.614 47.6349 47.5177 47.8594C47.4211 48.0842 47.2812 48.2835 47.0976 48.4576C46.9139 48.632 46.6894 48.7649 46.4234 48.8565L47.0234 50.7659H45.6717L45.1495 48.9835H45.1778H44.4436L44.0659 50.7659H42.7671L43.8506 45.673Z" fill="#6B570B"/>
<path d="M48.9256 49.2658C48.9422 49.3836 48.9921 49.4875 49.0757 49.5782C49.1591 49.6687 49.2679 49.74 49.402 49.7917C49.5361 49.8434 49.6868 49.8692 49.8539 49.8692C50.0162 49.8692 50.158 49.8477 50.2792 49.804C50.4004 49.7606 50.4951 49.6994 50.5634 49.6204C50.6314 49.5416 50.6655 49.4481 50.6655 49.3399C50.6655 49.2129 50.6215 49.1092 50.5333 49.0292C50.445 48.9493 50.2715 48.8693 50.0129 48.7893L49.5257 48.6411C49.1022 48.5116 48.7817 48.3329 48.5639 48.1047C48.3462 47.8765 48.2376 47.5883 48.2376 47.2398C48.2376 46.9083 48.325 46.6183 48.5003 46.3701C48.6756 46.1219 48.917 45.9287 49.224 45.7912C49.5309 45.6534 49.8834 45.5849 50.2811 45.5849C50.6975 45.5849 51.058 45.6482 51.3627 45.7752C51.6672 45.9023 51.9031 46.0834 52.0701 46.3187C52.2375 46.554 52.322 46.8366 52.3245 47.1657H51.1281C51.1256 47.0458 51.0896 46.9412 51.0204 46.8517C50.9509 46.7622 50.8556 46.6924 50.7344 46.6416C50.6132 46.5912 50.4702 46.566 50.3057 46.566C50.1503 46.566 50.0156 46.5894 49.9015 46.6364C49.7874 46.6835 49.701 46.7459 49.6423 46.8234C49.5832 46.9012 49.554 46.987 49.554 47.0811C49.554 47.206 49.6017 47.3118 49.697 47.3989C49.792 47.4859 49.9538 47.5634 50.182 47.6317L50.6904 47.7836C51.1373 47.9153 51.4661 48.0869 51.6768 48.2988C51.8875 48.5104 51.9926 48.7952 51.9926 49.1529C51.9926 49.4869 51.9031 49.7815 51.7244 50.0368C51.5458 50.2924 51.2951 50.4923 50.9728 50.6369C50.6504 50.7817 50.2691 50.854 49.8292 50.854C49.3987 50.854 49.0241 50.791 48.7051 50.6652C48.3862 50.5394 48.1392 50.3582 47.9639 50.1217C47.7886 49.8852 47.6988 49.6001 47.6938 49.2658H48.9256Z" fill="#6B570B"/>
<path d="M53.509 42.8584H25.3691C25.2992 42.8584 25.2427 42.8018 25.2427 42.732C25.2427 42.6622 25.2992 42.6056 25.3691 42.6056H53.509C53.5788 42.6056 53.6354 42.6622 53.6354 42.732C53.6354 42.8018 53.5788 42.8584 53.509 42.8584Z" fill="#6B570B"/>
</svg>
