<svg width="80" height="80" viewBox="0 0 80 80" fill="none" xmlns="http://www.w3.org/2000/svg">
<path d="M30.4287 32.3C30.0456 32.3 29.6782 32.4522 29.4073 32.7231C29.1364 32.994 28.9842 33.3614 28.9842 33.7445V46.3786C28.9842 46.7617 29.1364 47.1291 29.4073 47.3999C29.6782 47.6708 30.0456 47.823 30.4287 47.823C30.8118 47.823 31.1792 47.6708 31.45 47.3999C31.7209 47.1291 31.8731 46.7617 31.8731 46.3786V42.5941C31.8731 42.3823 32.1254 42.2744 32.2776 42.4208L37.3928 47.2221C37.5312 47.352 37.6937 47.4533 37.8712 47.5204C38.0488 47.5874 38.2377 47.6189 38.4274 47.6129C38.6171 47.6069 38.8037 47.5636 38.9766 47.4855C39.1495 47.4074 39.3054 47.2959 39.4353 47.1576C39.5651 47.0193 39.6665 46.8567 39.7335 46.6792C39.8006 46.5017 39.832 46.3127 39.826 46.123C39.82 45.9334 39.7767 45.7467 39.6986 45.5738C39.6205 45.4009 39.5091 45.245 39.3707 45.1152L35.931 41.8854C35.7827 41.7467 35.8636 41.4906 36.062 41.4424C37.1617 41.1734 38.1251 40.5113 38.7704 39.5811C39.4157 38.6509 39.6985 37.5167 39.5654 36.3924C39.4323 35.2681 38.8925 34.2313 38.0478 33.4775C37.2031 32.7236 36.1118 32.3049 34.9796 32.3H30.4287ZM32.1139 38.6806C32.05 38.6806 31.9888 38.6553 31.9436 38.6101C31.8985 38.565 31.8731 38.5037 31.8731 38.4399V35.4297C31.8731 35.2968 31.981 35.1889 32.1139 35.1889H34.9796C35.2138 35.1812 35.4471 35.2206 35.6657 35.3048C35.8843 35.389 36.0837 35.5164 36.2521 35.6793C36.4205 35.8422 36.5544 36.0372 36.6459 36.2529C36.7373 36.4686 36.7844 36.7005 36.7844 36.9348C36.7844 37.1691 36.7373 37.4009 36.6459 37.6166C36.5544 37.8323 36.4205 38.0274 36.2521 38.1903C36.0837 38.3532 35.8843 38.4805 35.6657 38.5648C35.4471 38.649 35.2138 38.6884 34.9796 38.6806H32.1139ZM17.1147 33.9082C17.1147 33.5251 17.2669 33.1577 17.5378 32.8868C17.8087 32.6159 18.1761 32.4638 18.5592 32.4638H25.5561C25.9392 32.4638 26.3066 32.6159 26.5775 32.8868C26.8483 33.1577 27.0005 33.5251 27.0005 33.9082C27.0005 34.2913 26.8483 34.6587 26.5775 34.9296C26.3066 35.2005 25.9392 35.3526 25.5561 35.3526H20.2444C20.1805 35.3526 20.1193 35.378 20.0741 35.4232C20.029 35.4683 20.0036 35.5295 20.0036 35.5934V38.6306C20.0036 38.7654 20.1115 38.8713 20.2444 38.8713H25.4617C25.8448 38.8713 26.2122 39.0235 26.4831 39.2944C26.754 39.5653 26.9062 39.9327 26.9062 40.3158C26.9062 40.6988 26.754 41.0662 26.4831 41.3371C26.2122 41.608 25.8448 41.7602 25.4617 41.7602H20.2444C20.1805 41.7602 20.1193 41.7856 20.0741 41.8307C20.029 41.8759 20.0036 41.9371 20.0036 42.0009V46.29C20.0036 46.6731 19.8515 47.0405 19.5806 47.3113C19.3097 47.5822 18.9423 47.7344 18.5592 47.7344C18.1761 47.7344 17.8087 47.5822 17.5378 47.3113C17.2669 47.0405 17.1147 46.6731 17.1147 46.29V33.9082ZM43.0184 32.4638C42.6354 32.4638 42.268 32.6159 41.9971 32.8868C41.7262 33.1577 41.574 33.5251 41.574 33.9082V46.2919C41.574 47.0892 42.2192 47.7363 43.0184 47.7363H50.0134C50.3965 47.7363 50.7639 47.5842 51.0348 47.3133C51.3057 47.0424 51.4579 46.675 51.4579 46.2919C51.4579 45.9088 51.3057 45.5414 51.0348 45.2705C50.7639 44.9996 50.3965 44.8475 50.0134 44.8475H44.7036C44.6719 44.8475 44.6404 44.8412 44.6111 44.8289C44.5817 44.8167 44.5551 44.7988 44.5327 44.7763C44.5103 44.7537 44.4926 44.7269 44.4807 44.6975C44.4687 44.6681 44.4626 44.6366 44.4629 44.6048V42.0029C44.4629 41.87 44.5707 41.7621 44.7036 41.7621H49.919C50.3021 41.7621 50.6695 41.6099 50.9404 41.3391C51.2113 41.0682 51.3635 40.7008 51.3635 40.3177C51.3635 39.9346 51.2113 39.5672 50.9404 39.2963C50.6695 39.0254 50.3021 38.8732 49.919 38.8732H44.7036C44.6398 38.8732 44.5786 38.8479 44.5334 38.8027C44.4883 38.7576 44.4629 38.6963 44.4629 38.6325V35.5953C44.4629 35.4605 44.5707 35.3546 44.7036 35.3546H50.0134C50.3965 35.3546 50.7639 35.2024 51.0348 34.9315C51.3057 34.6606 51.4579 34.2932 51.4579 33.9101C51.4579 33.527 51.3057 33.1596 51.0348 32.8887C50.7639 32.6179 50.3965 32.4657 50.0134 32.4657L43.0184 32.4638ZM54.9187 32.4638C54.5357 32.4638 54.1683 32.6159 53.8974 32.8868C53.6265 33.1577 53.4743 33.5251 53.4743 33.9082V46.2919C53.4743 47.0892 54.1214 47.7363 54.9187 47.7363H61.9156C62.2987 47.7363 62.6661 47.5842 62.937 47.3133C63.2079 47.0424 63.3601 46.675 63.3601 46.2919C63.3601 45.9088 63.2079 45.5414 62.937 45.2705C62.6661 44.9996 62.2987 44.8475 61.9156 44.8475H56.6039C56.5721 44.8475 56.5407 44.8412 56.5114 44.8289C56.482 44.8167 56.4554 44.7988 56.433 44.7763C56.4106 44.7537 56.3929 44.7269 56.381 44.6975C56.369 44.6681 56.3629 44.6366 56.3632 44.6048V42.0029C56.3632 41.87 56.471 41.7621 56.6039 41.7621H61.8213C62.2043 41.7621 62.5718 41.6099 62.8426 41.3391C63.1135 41.0682 63.2657 40.7008 63.2657 40.3177C63.2657 39.9346 63.1135 39.5672 62.8426 39.2963C62.5718 39.0254 62.2043 38.8732 61.8213 38.8732H56.6039C56.5401 38.8732 56.4788 38.8479 56.4337 38.8027C56.3885 38.7576 56.3632 38.6963 56.3632 38.6325V35.5953C56.3632 35.4605 56.471 35.3546 56.6039 35.3546H61.9156C62.2987 35.3546 62.6661 35.2024 62.937 34.9315C63.2079 34.6606 63.3601 34.2932 63.3601 33.9101C63.3601 33.527 63.2079 33.1596 62.937 32.8887C62.6661 32.6179 62.2987 32.4657 61.9156 32.4657L54.9187 32.4638Z" fill="#6B570B"/>
<path d="M20.741 11.1111C19.4764 11.1111 18.2242 11.3602 17.0559 11.8441C15.8875 12.328 14.826 13.0373 13.9318 13.9315C12.1259 15.7374 11.1113 18.1868 11.1113 20.7407V59.2592C11.1113 61.8132 12.1259 64.2625 13.9318 66.0684C14.826 66.9626 15.8875 67.6719 17.0559 68.1558C18.2242 68.6398 19.4764 68.8889 20.741 68.8889H59.2595C61.8134 68.8889 64.2627 67.8743 66.0687 66.0684C67.8746 64.2625 68.8891 61.8132 68.8891 59.2592V20.7407C68.8891 19.4761 68.64 18.2239 68.1561 17.0556C67.6722 15.8873 66.9628 14.8257 66.0687 13.9315C65.1745 13.0373 64.1129 12.328 62.9446 11.8441C61.7763 11.3602 60.5241 11.1111 59.2595 11.1111H20.741ZM14.9632 20.7407C14.9632 19.2084 15.5719 17.7388 16.6555 16.6552C17.739 15.5717 19.2086 14.9629 20.741 14.9629H59.2595C60.7918 14.9629 62.2614 15.5717 63.345 16.6552C64.4285 17.7388 65.0373 19.2084 65.0373 20.7407V59.2592C65.0373 60.7916 64.4285 62.2612 63.345 63.3447C62.2614 64.4283 60.7918 65.037 59.2595 65.037H20.741C19.2086 65.037 17.739 64.4283 16.6555 63.3447C15.5719 62.2612 14.9632 60.7916 14.9632 59.2592V20.7407Z" fill="#6B570B"/>
</svg>
