<svg width="80" height="80" viewBox="0 0 80 80" fill="none" xmlns="http://www.w3.org/2000/svg">
<g opacity="0.2">
<path d="M38.9995 31C38.9995 34.1826 37.7352 37.2348 35.4848 39.4853C33.2344 41.7357 30.1821 43 26.9995 43C23.8169 43 20.7647 41.7357 18.5142 39.4853C16.2638 37.2348 14.9995 34.1826 14.9995 31C14.9995 27.8174 16.2638 24.7652 18.5142 22.5147C20.7647 20.2643 23.8169 19 26.9995 19C30.1821 19 33.2344 20.2643 35.4848 22.5147C37.7352 24.7652 38.9995 27.8174 38.9995 31Z" fill="#6B570B"/>
<path fill-rule="evenodd" clip-rule="evenodd" d="M26.9995 35C28.0604 35 29.0778 34.5786 29.8279 33.8284C30.5781 33.0783 30.9995 32.0609 30.9995 31C30.9995 29.9391 30.5781 28.9217 29.8279 28.1716C29.0778 27.4214 28.0604 27 26.9995 27C25.9386 27 24.9212 27.4214 24.1711 28.1716C23.4209 28.9217 22.9995 29.9391 22.9995 31C22.9995 32.0609 23.4209 33.0783 24.1711 33.8284C24.9212 34.5786 25.9386 35 26.9995 35ZM26.9995 43C28.5754 43 30.1358 42.6896 31.5917 42.0866C33.0476 41.4835 34.3705 40.5996 35.4848 39.4853C36.5991 38.371 37.483 37.0481 38.0861 35.5922C38.6891 34.1363 38.9995 32.5759 38.9995 31C38.9995 29.4241 38.6891 27.8637 38.0861 26.4078C37.483 24.9519 36.5991 23.629 35.4848 22.5147C34.3705 21.4004 33.0476 20.5165 31.5917 19.9134C30.1358 19.3104 28.5754 19 26.9995 19C23.8169 19 20.7647 20.2643 18.5142 22.5147C16.2638 24.7652 14.9995 27.8174 14.9995 31C14.9995 34.1826 16.2638 37.2348 18.5142 39.4853C20.7647 41.7357 23.8169 43 26.9995 43Z" fill="#6B570B"/>
<path fill-rule="evenodd" clip-rule="evenodd" d="M27.1987 46.0002C25.6074 46.0002 24.0813 46.6324 22.9561 47.7576C21.8309 48.8828 21.1987 50.4089 21.1987 52.0002V58.0002C21.1987 59.0611 20.7773 60.0785 20.0272 60.8287C19.277 61.5788 18.2596 62.0002 17.1987 62.0002C16.1379 62.0002 15.1204 61.5788 14.3703 60.8287C13.6202 60.0785 13.1987 59.0611 13.1987 58.0002V52.0002C13.1987 48.2872 14.6737 44.7263 17.2992 42.1007C19.9247 39.4752 23.4857 38.0002 27.1987 38.0002C30.9118 38.0002 34.4727 39.4752 37.0982 42.1007C39.7237 44.7263 41.1987 48.2872 41.1987 52.0002V54.0002C41.1987 55.0611 40.7773 56.0785 40.0272 56.8287C39.277 57.5788 38.2596 58.0002 37.1987 58.0002C36.1379 58.0002 35.1204 57.5788 34.3703 56.8287C33.6202 56.0785 33.1987 55.0611 33.1987 54.0002V52.0002C33.1987 50.4089 32.5666 48.8828 31.4414 47.7576C30.3162 46.6324 28.79 46.0002 27.1987 46.0002Z" fill="#6B570B"/>
<path d="M50.9995 31C50.9995 34.1826 52.2638 37.2348 54.5142 39.4853C56.7647 41.7357 59.8169 43 62.9995 43C66.1821 43 69.2344 41.7357 71.4848 39.4853C73.7352 37.2348 74.9995 34.1826 74.9995 31C74.9995 27.8174 73.7352 24.7652 71.4848 22.5147C69.2344 20.2643 66.1821 19 62.9995 19C59.8169 19 56.7647 20.2643 54.5142 22.5147C52.2638 24.7652 50.9995 27.8174 50.9995 31Z" fill="#6B570B"/>
<path fill-rule="evenodd" clip-rule="evenodd" d="M62.9995 35C61.9386 35 60.9212 34.5786 60.1711 33.8284C59.4209 33.0783 58.9995 32.0609 58.9995 31C58.9995 29.9391 59.4209 28.9217 60.1711 28.1716C60.9212 27.4214 61.9386 27 62.9995 27C64.0604 27 65.0778 27.4214 65.8279 28.1716C66.5781 28.9217 66.9995 29.9391 66.9995 31C66.9995 32.0609 66.5781 33.0783 65.8279 33.8284C65.0778 34.5786 64.0604 35 62.9995 35ZM62.9995 43C61.4236 43 59.8632 42.6896 58.4073 42.0866C56.9514 41.4835 55.6285 40.5996 54.5142 39.4853C53.3999 38.371 52.516 37.0481 51.913 35.5922C51.3099 34.1363 50.9995 32.5759 50.9995 31C50.9995 29.4241 51.3099 27.8637 51.913 26.4078C52.516 24.9519 53.3999 23.629 54.5142 22.5147C55.6285 21.4004 56.9514 20.5165 58.4073 19.9134C59.8632 19.3104 61.4236 19 62.9995 19C66.1821 19 69.2344 20.2643 71.4848 22.5147C73.7352 24.7652 74.9995 27.8174 74.9995 31C74.9995 34.1826 73.7352 37.2348 71.4848 39.4853C69.2344 41.7357 66.1821 43 62.9995 43Z" fill="#6B570B"/>
<path fill-rule="evenodd" clip-rule="evenodd" d="M62.8003 46.0002C64.3916 46.0002 65.9177 46.6324 67.0429 47.7576C68.1682 48.8828 68.8003 50.4089 68.8003 52.0002V58.0002C68.8003 59.0611 69.2217 60.0785 69.9719 60.8287C70.722 61.5788 71.7394 62.0002 72.8003 62.0002C73.8612 62.0002 74.8786 61.5788 75.6287 60.8287C76.3789 60.0785 76.8003 59.0611 76.8003 58.0002V52.0002C76.8003 48.2872 75.3253 44.7263 72.6998 42.1007C70.0743 39.4752 66.5133 38.0002 62.8003 38.0002C59.0873 38.0002 55.5263 39.4752 52.9008 42.1007C50.2753 44.7263 48.8003 48.2872 48.8003 52.0002V54.0002C48.8003 55.0611 49.2217 56.0785 49.9719 56.8287C50.722 57.5788 51.7394 58.0002 52.8003 58.0002C53.8612 58.0002 54.8786 57.5788 55.6287 56.8287C56.3789 56.0785 56.8003 55.0611 56.8003 54.0002V52.0002C56.8003 50.4089 57.4324 48.8828 58.5577 47.7576C59.6829 46.6324 61.209 46.0002 62.8003 46.0002Z" fill="#6B570B"/>
<path fill-rule="evenodd" clip-rule="evenodd" d="M45.1992 57C43.6079 57 42.0818 57.6321 40.9566 58.7574C39.8314 59.8826 39.1992 61.4087 39.1992 63V69C39.1992 70.0609 38.7778 71.0783 38.0276 71.8284C37.2775 72.5786 36.2601 73 35.1992 73C34.1384 73 33.1209 72.5786 32.3708 71.8284C31.6206 71.0783 31.1992 70.0609 31.1992 69V63C31.1992 59.287 32.6742 55.726 35.2997 53.1005C37.9252 50.475 41.4862 49 45.1992 49C48.9122 49 52.4732 50.475 55.0987 53.1005C57.7242 55.726 59.1992 59.287 59.1992 63V69C59.1992 70.0609 58.7778 71.0783 58.0276 71.8284C57.2775 72.5786 56.2601 73 55.1992 73C54.1384 73 53.1209 72.5786 52.3708 71.8284C51.6206 71.0783 51.1992 70.0609 51.1992 69V63C51.1992 61.4087 50.5671 59.8826 49.4419 58.7574C48.3166 57.6321 46.7905 57 45.1992 57Z" fill="#6B570B"/>
<path d="M56.9995 42C56.9995 45.1826 55.7352 48.2348 53.4848 50.4853C51.2344 52.7357 48.1821 54 44.9995 54C41.8169 54 38.7647 52.7357 36.5142 50.4853C34.2638 48.2348 32.9995 45.1826 32.9995 42C32.9995 38.8174 34.2638 35.7652 36.5142 33.5147C38.7647 31.2643 41.8169 30 44.9995 30C48.1821 30 51.2344 31.2643 53.4848 33.5147C55.7352 35.7652 56.9995 38.8174 56.9995 42Z" fill="#6B570B"/>
<path fill-rule="evenodd" clip-rule="evenodd" d="M44.9995 46C46.0604 46 47.0778 45.5786 47.8279 44.8284C48.5781 44.0783 48.9995 43.0609 48.9995 42C48.9995 40.9391 48.5781 39.9217 47.8279 39.1716C47.0778 38.4214 46.0604 38 44.9995 38C43.9386 38 42.9212 38.4214 42.1711 39.1716C41.4209 39.9217 40.9995 40.9391 40.9995 42C40.9995 43.0609 41.4209 44.0783 42.1711 44.8284C42.9212 45.5786 43.9386 46 44.9995 46ZM44.9995 54C48.1821 54 51.2344 52.7357 53.4848 50.4853C55.7352 48.2348 56.9995 45.1826 56.9995 42C56.9995 38.8174 55.7352 35.7652 53.4848 33.5147C51.2344 31.2643 48.1821 30 44.9995 30C41.8169 30 38.7647 31.2643 36.5142 33.5147C34.2638 35.7652 32.9995 38.8174 32.9995 42C32.9995 45.1826 34.2638 48.2348 36.5142 50.4853C38.7647 52.7357 41.8169 54 44.9995 54Z" fill="#6B570B"/>
<path d="M17 46.0002H37V62.0002H17V46.0002ZM53 46.0002H73V62.0002H53V46.0002Z" fill="#6B570B"/>
<path d="M36.9995 54H52.9995L54.9995 73H34.9995L36.9995 54Z" fill="#6B570B"/>
</g>
<path fill-rule="evenodd" clip-rule="evenodd" d="M19.999 36.0002C22.1208 36.0002 24.1556 35.1574 25.6559 33.6571C27.1562 32.1568 27.999 30.122 27.999 28.0002C27.999 25.8785 27.1562 23.8437 25.6559 22.3434C24.1556 20.8431 22.1208 20.0002 19.999 20.0002C17.8773 20.0002 15.8425 20.8431 14.3422 22.3434C12.8419 23.8437 11.999 25.8785 11.999 28.0002C11.999 30.122 12.8419 32.1568 14.3422 33.6571C15.8425 35.1574 17.8773 36.0002 19.999 36.0002ZM19.999 40.0002C21.5749 40.0002 23.1353 39.6899 24.5912 39.0868C26.0471 38.4837 27.37 37.5998 28.4843 36.4855C29.5986 35.3712 30.4825 34.0484 31.0856 32.5924C31.6886 31.1365 31.999 29.5761 31.999 28.0002C31.999 26.4244 31.6886 24.8639 31.0856 23.408C30.4825 21.9521 29.5986 20.6293 28.4843 19.515C27.37 18.4007 26.0471 17.5167 24.5912 16.9137C23.1353 16.3106 21.5749 16.0002 19.999 16.0002C16.8164 16.0002 13.7642 17.2645 11.5137 19.515C9.26331 21.7654 7.99902 24.8176 7.99902 28.0002C7.99902 31.1828 9.26331 34.2351 11.5137 36.4855C13.7642 38.736 16.8164 40.0002 19.999 40.0002Z" fill="#6B570B"/>
<path fill-rule="evenodd" clip-rule="evenodd" d="M15.4155 35.5844C15.6018 35.7702 15.7495 35.9909 15.8504 36.2339C15.9512 36.4769 16.0031 36.7374 16.0031 37.0004C16.0031 37.2635 15.9512 37.524 15.8504 37.767C15.7495 38.01 15.6018 38.2307 15.4155 38.4165L14.0635 39.7644C11.4617 42.367 9.99985 45.8964 9.99951 49.5764V57.0004C9.99951 57.5309 9.7888 58.0396 9.41372 58.4147C9.03865 58.7897 8.52994 59.0004 7.99951 59.0004C7.46908 59.0004 6.96037 58.7897 6.5853 58.4147C6.21023 58.0396 5.99951 57.5309 5.99951 57.0004V49.5764C6.00008 44.8356 7.88345 40.289 11.2355 36.9365L12.5835 35.5844C12.7693 35.3982 12.99 35.2504 13.233 35.1496C13.476 35.0488 13.7364 34.9969 13.9995 34.9969C14.2626 34.9969 14.5231 35.0488 14.766 35.1496C15.009 35.2504 15.2297 35.3982 15.4155 35.5844ZM62.5835 34.3844C62.3973 34.5702 62.2495 34.7909 62.1487 35.0339C62.0478 35.2769 61.9959 35.5374 61.9959 35.8004C61.9959 36.0635 62.0478 36.324 62.1487 36.567C62.2495 36.81 62.3973 37.0307 62.5835 37.2164L63.9355 38.5644C66.5374 41.167 67.9992 44.6964 67.9995 48.3764V57.0004C67.9995 57.5309 68.2102 58.0396 68.5853 58.4147C68.9604 58.7897 69.4691 59.0004 69.9995 59.0004C70.5299 59.0004 71.0387 58.7897 71.4137 58.4147C71.7888 58.0396 71.9995 57.5309 71.9995 57.0004V48.3764C71.9989 43.6356 70.1156 39.089 66.7635 35.7365L65.4155 34.3844C65.2297 34.1982 65.009 34.0504 64.766 33.9496C64.5231 33.8488 64.2626 33.7969 63.9995 33.7969C63.7364 33.7969 63.476 33.8488 63.233 33.9496C62.99 34.0504 62.7693 34.1982 62.5835 34.3844Z" fill="#6B570B"/>
<path fill-rule="evenodd" clip-rule="evenodd" d="M55.9995 36.0002C53.8778 36.0002 51.8429 35.1574 50.3427 33.6571C48.8424 32.1568 47.9995 30.122 47.9995 28.0002C47.9995 25.8785 48.8424 23.8437 50.3427 22.3434C51.8429 20.8431 53.8778 20.0002 55.9995 20.0002C58.1212 20.0002 60.1561 20.8431 61.6564 22.3434C63.1567 23.8437 63.9995 25.8785 63.9995 28.0002C63.9995 30.122 63.1567 32.1568 61.6564 33.6571C60.1561 35.1574 58.1212 36.0002 55.9995 36.0002ZM55.9995 40.0002C54.4236 40.0002 52.8632 39.6899 51.4073 39.0868C49.9514 38.4837 48.6285 37.5998 47.5142 36.4855C46.3999 35.3712 45.516 34.0484 44.913 32.5924C44.3099 31.1365 43.9995 29.5761 43.9995 28.0002C43.9995 26.4244 44.3099 24.864 44.913 23.408C45.516 21.9521 46.3999 20.6293 47.5142 19.515C48.6285 18.4007 49.9514 17.5167 51.4073 16.9137C52.8632 16.3106 54.4236 16.0002 55.9995 16.0002C59.1821 16.0002 62.2344 17.2645 64.4848 19.515C66.7352 21.7654 67.9995 24.8176 67.9995 28.0002C67.9995 31.1828 66.7352 34.2351 64.4848 36.4855C62.2344 38.736 59.1821 40.0002 55.9995 40.0002ZM37.9995 53.0002C35.3473 53.0002 32.8038 54.0538 30.9284 55.9292C29.0531 57.8045 27.9995 60.3481 27.9995 63.0002V68.2002C27.9995 68.7307 27.7888 69.2394 27.4137 69.6145C27.0387 69.9895 26.5299 70.2002 25.9995 70.2002C25.4691 70.2002 24.9604 69.9895 24.5853 69.6145C24.2102 69.2394 23.9995 68.7307 23.9995 68.2002V63.0002C23.9995 59.2872 25.4745 55.7263 28.1 53.1007C30.7255 50.4752 34.2865 49.0002 37.9995 49.0002C41.7125 49.0002 45.2735 50.4752 47.899 53.1007C50.5245 55.7263 51.9995 59.2872 51.9995 63.0002V68.2002C51.9995 68.7307 51.7888 69.2394 51.4137 69.6145C51.0387 69.9895 50.5299 70.2002 49.9995 70.2002C49.4691 70.2002 48.9604 69.9895 48.5853 69.6145C48.2102 69.2394 47.9995 68.7307 47.9995 68.2002V63.0002C47.9995 61.687 47.7409 60.3867 47.2383 59.1734C46.7358 57.9602 45.9992 56.8578 45.0706 55.9292C44.142 55.0006 43.0396 54.264 41.8263 53.7614C40.6131 53.2589 39.3127 53.0002 37.9995 53.0002Z" fill="#6B570B"/>
<path fill-rule="evenodd" clip-rule="evenodd" d="M37.9995 47C40.1212 47 42.1561 46.1571 43.6564 44.6569C45.1567 43.1566 45.9995 41.1217 45.9995 39C45.9995 36.8783 45.1567 34.8434 43.6564 33.3431C42.1561 31.8429 40.1212 31 37.9995 31C35.8778 31 33.8429 31.8429 32.3427 33.3431C30.8424 34.8434 29.9995 36.8783 29.9995 39C29.9995 41.1217 30.8424 43.1566 32.3427 44.6569C33.8429 46.1571 35.8778 47 37.9995 47ZM37.9995 51C41.1821 51 44.2344 49.7357 46.4848 47.4853C48.7352 45.2348 49.9995 42.1826 49.9995 39C49.9995 35.8174 48.7352 32.7652 46.4848 30.5147C44.2344 28.2643 41.1821 27 37.9995 27C34.8169 27 31.7647 28.2643 29.5142 30.5147C27.2638 32.7652 25.9995 35.8174 25.9995 39C25.9995 42.1826 27.2638 45.2348 29.5142 47.4853C31.7647 49.7357 34.8169 51 37.9995 51Z" fill="#6B570B"/>
</svg>
