<svg width="148" height="22" viewBox="0 0 148 22" fill="none" xmlns="http://www.w3.org/2000/svg">
<g clip-path="url(#clip0_413_1345)">
<path d="M18.3337 15.0994V17.5994C18.3346 17.8315 18.2871 18.0612 18.1941 18.2739C18.1011 18.4865 17.9648 18.6774 17.7937 18.8343C17.6227 18.9912 17.4208 19.1107 17.201 19.185C16.9811 19.2594 16.7482 19.287 16.517 19.2661C13.9527 18.9875 11.4895 18.1112 9.32535 16.7078C7.31187 15.4283 5.6048 13.7212 4.32535 11.7078C2.917 9.53377 2.04055 7.05859 1.76702 4.48276C1.74619 4.25232 1.77358 4.02006 1.84743 3.80078C1.92129 3.5815 2.03999 3.38 2.19599 3.20911C2.35199 3.03822 2.54186 2.90169 2.75351 2.8082C2.96517 2.71471 3.19397 2.66631 3.42535 2.6661H5.92535C6.32977 2.66212 6.72184 2.80533 7.02849 3.06904C7.33513 3.33275 7.53542 3.69897 7.59202 4.09943C7.69754 4.89949 7.89323 5.68504 8.17535 6.4411C8.28747 6.73937 8.31174 7.06353 8.24527 7.37516C8.17881 7.6868 8.0244 7.97286 7.80035 8.19943L6.74202 9.25776C7.92831 11.3441 9.65573 13.0715 11.742 14.2578L12.8004 13.1994C13.0269 12.9754 13.313 12.821 13.6246 12.7545C13.9363 12.688 14.2604 12.7123 14.5587 12.8244C15.3147 13.1066 16.1003 13.3022 16.9004 13.4078C17.3052 13.4649 17.6749 13.6688 17.9391 13.9807C18.2034 14.2926 18.3438 14.6907 18.3337 15.0994Z" stroke="#8C710F" stroke-width="1.66667" stroke-linecap="round" stroke-linejoin="round"/>
</g>
<path d="M34.4062 9.89844V11.2578H26.6094V9.89844H34.4062ZM31.2344 6.57812V14.8594H29.7891V6.57812H31.2344ZM37.4609 14.7891H37.6094C38.4427 14.7891 39.1198 14.6719 39.6406 14.4375C40.1615 14.2031 40.5625 13.888 40.8438 13.4922C41.125 13.0964 41.3177 12.651 41.4219 12.1562C41.526 11.6562 41.5781 11.1432 41.5781 10.6172V8.875C41.5781 8.35938 41.5182 7.90104 41.3984 7.5C41.2839 7.09896 41.1224 6.76302 40.9141 6.49219C40.7109 6.22135 40.4792 6.01562 40.2188 5.875C39.9583 5.73438 39.6823 5.66406 39.3906 5.66406C39.0573 5.66406 38.7578 5.73177 38.4922 5.86719C38.2318 5.9974 38.0104 6.18229 37.8281 6.42188C37.651 6.66146 37.5156 6.94271 37.4219 7.26562C37.3281 7.58854 37.2812 7.9401 37.2812 8.32031C37.2812 8.65885 37.3229 8.98698 37.4062 9.30469C37.4896 9.6224 37.6172 9.90885 37.7891 10.1641C37.9609 10.4193 38.1745 10.6224 38.4297 10.7734C38.6901 10.9193 38.9948 10.9922 39.3438 10.9922C39.6667 10.9922 39.9688 10.9297 40.25 10.8047C40.5365 10.6745 40.7891 10.5 41.0078 10.2812C41.2318 10.0573 41.4089 9.80469 41.5391 9.52344C41.6745 9.24219 41.7526 8.94792 41.7734 8.64062H42.4609C42.4609 9.07292 42.375 9.5 42.2031 9.92188C42.0365 10.3385 41.8021 10.7188 41.5 11.0625C41.1979 11.4062 40.8438 11.6823 40.4375 11.8906C40.0312 12.0938 39.5885 12.1953 39.1094 12.1953C38.5469 12.1953 38.0599 12.0859 37.6484 11.8672C37.237 11.6484 36.8984 11.3568 36.6328 10.9922C36.3724 10.6276 36.1771 10.2214 36.0469 9.77344C35.9219 9.32031 35.8594 8.86198 35.8594 8.39844C35.8594 7.85677 35.9349 7.34896 36.0859 6.875C36.237 6.40104 36.4609 5.98438 36.7578 5.625C37.0547 5.26042 37.4219 4.97656 37.8594 4.77344C38.3021 4.57031 38.8125 4.46875 39.3906 4.46875C40.0417 4.46875 40.5964 4.59896 41.0547 4.85938C41.513 5.11979 41.8854 5.46875 42.1719 5.90625C42.4635 6.34375 42.6771 6.83594 42.8125 7.38281C42.9479 7.92969 43.0156 8.49219 43.0156 9.07031V9.59375C43.0156 10.1823 42.9766 10.7812 42.8984 11.3906C42.8255 11.9948 42.6823 12.5729 42.4688 13.125C42.2604 13.6771 41.9557 14.1719 41.5547 14.6094C41.1536 15.0417 40.6302 15.3854 39.9844 15.6406C39.3438 15.8906 38.5521 16.0156 37.6094 16.0156H37.4609V14.7891ZM49.7734 4.5625V16H48.3281V6.36719L45.4141 7.42969V6.125L49.5469 4.5625H49.7734ZM59.4297 14.7891H59.5781C60.4115 14.7891 61.0885 14.6719 61.6094 14.4375C62.1302 14.2031 62.5312 13.888 62.8125 13.4922C63.0938 13.0964 63.2865 12.651 63.3906 12.1562C63.4948 11.6562 63.5469 11.1432 63.5469 10.6172V8.875C63.5469 8.35938 63.487 7.90104 63.3672 7.5C63.2526 7.09896 63.0911 6.76302 62.8828 6.49219C62.6797 6.22135 62.4479 6.01562 62.1875 5.875C61.9271 5.73438 61.651 5.66406 61.3594 5.66406C61.026 5.66406 60.7266 5.73177 60.4609 5.86719C60.2005 5.9974 59.9792 6.18229 59.7969 6.42188C59.6198 6.66146 59.4844 6.94271 59.3906 7.26562C59.2969 7.58854 59.25 7.9401 59.25 8.32031C59.25 8.65885 59.2917 8.98698 59.375 9.30469C59.4583 9.6224 59.5859 9.90885 59.7578 10.1641C59.9297 10.4193 60.1432 10.6224 60.3984 10.7734C60.6589 10.9193 60.9635 10.9922 61.3125 10.9922C61.6354 10.9922 61.9375 10.9297 62.2188 10.8047C62.5052 10.6745 62.7578 10.5 62.9766 10.2812C63.2005 10.0573 63.3776 9.80469 63.5078 9.52344C63.6432 9.24219 63.7214 8.94792 63.7422 8.64062H64.4297C64.4297 9.07292 64.3438 9.5 64.1719 9.92188C64.0052 10.3385 63.7708 10.7188 63.4688 11.0625C63.1667 11.4062 62.8125 11.6823 62.4062 11.8906C62 12.0938 61.5573 12.1953 61.0781 12.1953C60.5156 12.1953 60.0286 12.0859 59.6172 11.8672C59.2057 11.6484 58.8672 11.3568 58.6016 10.9922C58.3411 10.6276 58.1458 10.2214 58.0156 9.77344C57.8906 9.32031 57.8281 8.86198 57.8281 8.39844C57.8281 7.85677 57.9036 7.34896 58.0547 6.875C58.2057 6.40104 58.4297 5.98438 58.7266 5.625C59.0234 5.26042 59.3906 4.97656 59.8281 4.77344C60.2708 4.57031 60.7812 4.46875 61.3594 4.46875C62.0104 4.46875 62.5651 4.59896 63.0234 4.85938C63.4818 5.11979 63.8542 5.46875 64.1406 5.90625C64.4323 6.34375 64.6458 6.83594 64.7812 7.38281C64.9167 7.92969 64.9844 8.49219 64.9844 9.07031V9.59375C64.9844 10.1823 64.9453 10.7812 64.8672 11.3906C64.7943 11.9948 64.651 12.5729 64.4375 13.125C64.2292 13.6771 63.9245 14.1719 63.5234 14.6094C63.1224 15.0417 62.599 15.3854 61.9531 15.6406C61.3125 15.8906 60.5208 16.0156 59.5781 16.0156H59.4297V14.7891ZM72.5391 4.60938H72.6641V5.83594H72.5391C71.7734 5.83594 71.1328 5.96094 70.6172 6.21094C70.1016 6.45573 69.6927 6.78646 69.3906 7.20312C69.0885 7.61458 68.8698 8.07812 68.7344 8.59375C68.6042 9.10938 68.5391 9.63281 68.5391 10.1641V11.8359C68.5391 12.3411 68.599 12.7891 68.7188 13.1797C68.8385 13.5651 69.0026 13.8906 69.2109 14.1562C69.4193 14.4219 69.6536 14.6224 69.9141 14.7578C70.1797 14.8932 70.4557 14.9609 70.7422 14.9609C71.0755 14.9609 71.3724 14.8984 71.6328 14.7734C71.8932 14.6432 72.112 14.4635 72.2891 14.2344C72.4714 14 72.6094 13.724 72.7031 13.4062C72.7969 13.0885 72.8438 12.7396 72.8438 12.3594C72.8438 12.0208 72.8021 11.6953 72.7188 11.3828C72.6354 11.0651 72.5078 10.7839 72.3359 10.5391C72.1641 10.2891 71.9479 10.0938 71.6875 9.95312C71.4323 9.80729 71.1276 9.73438 70.7734 9.73438C70.3724 9.73438 69.9974 9.83333 69.6484 10.0312C69.3047 10.224 69.0208 10.4792 68.7969 10.7969C68.5781 11.1094 68.4531 11.4505 68.4219 11.8203L67.6562 11.8125C67.7292 11.2292 67.8646 10.7318 68.0625 10.3203C68.2656 9.90365 68.5156 9.5651 68.8125 9.30469C69.1146 9.03906 69.4505 8.84635 69.8203 8.72656C70.1953 8.60156 70.5911 8.53906 71.0078 8.53906C71.5755 8.53906 72.0651 8.64583 72.4766 8.85938C72.888 9.07292 73.2266 9.35938 73.4922 9.71875C73.7578 10.0729 73.9531 10.474 74.0781 10.9219C74.2083 11.3646 74.2734 11.8203 74.2734 12.2891C74.2734 12.8255 74.1979 13.3281 74.0469 13.7969C73.8958 14.2656 73.6693 14.6771 73.3672 15.0312C73.0703 15.3854 72.7031 15.6615 72.2656 15.8594C71.8281 16.0573 71.3203 16.1562 70.7422 16.1562C70.1276 16.1562 69.5911 16.0312 69.1328 15.7812C68.6745 15.526 68.2943 15.1875 67.9922 14.7656C67.6901 14.3438 67.4635 13.875 67.3125 13.3594C67.1615 12.8438 67.0859 12.3203 67.0859 11.7891V11.1094C67.0859 10.3073 67.1667 9.52083 67.3281 8.75C67.4896 7.97917 67.7682 7.28125 68.1641 6.65625C68.5651 6.03125 69.1198 5.53385 69.8281 5.16406C70.5365 4.79427 71.4401 4.60938 72.5391 4.60938ZM81.5391 4.60938H81.6641V5.83594H81.5391C80.7734 5.83594 80.1328 5.96094 79.6172 6.21094C79.1016 6.45573 78.6927 6.78646 78.3906 7.20312C78.0885 7.61458 77.8698 8.07812 77.7344 8.59375C77.6042 9.10938 77.5391 9.63281 77.5391 10.1641V11.8359C77.5391 12.3411 77.599 12.7891 77.7188 13.1797C77.8385 13.5651 78.0026 13.8906 78.2109 14.1562C78.4193 14.4219 78.6536 14.6224 78.9141 14.7578C79.1797 14.8932 79.4557 14.9609 79.7422 14.9609C80.0755 14.9609 80.3724 14.8984 80.6328 14.7734C80.8932 14.6432 81.112 14.4635 81.2891 14.2344C81.4714 14 81.6094 13.724 81.7031 13.4062C81.7969 13.0885 81.8438 12.7396 81.8438 12.3594C81.8438 12.0208 81.8021 11.6953 81.7188 11.3828C81.6354 11.0651 81.5078 10.7839 81.3359 10.5391C81.1641 10.2891 80.9479 10.0938 80.6875 9.95312C80.4323 9.80729 80.1276 9.73438 79.7734 9.73438C79.3724 9.73438 78.9974 9.83333 78.6484 10.0312C78.3047 10.224 78.0208 10.4792 77.7969 10.7969C77.5781 11.1094 77.4531 11.4505 77.4219 11.8203L76.6562 11.8125C76.7292 11.2292 76.8646 10.7318 77.0625 10.3203C77.2656 9.90365 77.5156 9.5651 77.8125 9.30469C78.1146 9.03906 78.4505 8.84635 78.8203 8.72656C79.1953 8.60156 79.5911 8.53906 80.0078 8.53906C80.5755 8.53906 81.0651 8.64583 81.4766 8.85938C81.888 9.07292 82.2266 9.35938 82.4922 9.71875C82.7578 10.0729 82.9531 10.474 83.0781 10.9219C83.2083 11.3646 83.2734 11.8203 83.2734 12.2891C83.2734 12.8255 83.1979 13.3281 83.0469 13.7969C82.8958 14.2656 82.6693 14.6771 82.3672 15.0312C82.0703 15.3854 81.7031 15.6615 81.2656 15.8594C80.8281 16.0573 80.3203 16.1562 79.7422 16.1562C79.1276 16.1562 78.5911 16.0312 78.1328 15.7812C77.6745 15.526 77.2943 15.1875 76.9922 14.7656C76.6901 14.3438 76.4635 13.875 76.3125 13.3594C76.1615 12.8438 76.0859 12.3203 76.0859 11.7891V11.1094C76.0859 10.3073 76.1667 9.52083 76.3281 8.75C76.4896 7.97917 76.7682 7.28125 77.1641 6.65625C77.5651 6.03125 78.1198 5.53385 78.8281 5.16406C79.5365 4.79427 80.4401 4.60938 81.5391 4.60938ZM86.4297 14.7891H86.5781C87.4115 14.7891 88.0885 14.6719 88.6094 14.4375C89.1302 14.2031 89.5312 13.888 89.8125 13.4922C90.0938 13.0964 90.2865 12.651 90.3906 12.1562C90.4948 11.6562 90.5469 11.1432 90.5469 10.6172V8.875C90.5469 8.35938 90.487 7.90104 90.3672 7.5C90.2526 7.09896 90.0911 6.76302 89.8828 6.49219C89.6797 6.22135 89.4479 6.01562 89.1875 5.875C88.9271 5.73438 88.651 5.66406 88.3594 5.66406C88.026 5.66406 87.7266 5.73177 87.4609 5.86719C87.2005 5.9974 86.9792 6.18229 86.7969 6.42188C86.6198 6.66146 86.4844 6.94271 86.3906 7.26562C86.2969 7.58854 86.25 7.9401 86.25 8.32031C86.25 8.65885 86.2917 8.98698 86.375 9.30469C86.4583 9.6224 86.5859 9.90885 86.7578 10.1641C86.9297 10.4193 87.1432 10.6224 87.3984 10.7734C87.6589 10.9193 87.9635 10.9922 88.3125 10.9922C88.6354 10.9922 88.9375 10.9297 89.2188 10.8047C89.5052 10.6745 89.7578 10.5 89.9766 10.2812C90.2005 10.0573 90.3776 9.80469 90.5078 9.52344C90.6432 9.24219 90.7214 8.94792 90.7422 8.64062H91.4297C91.4297 9.07292 91.3438 9.5 91.1719 9.92188C91.0052 10.3385 90.7708 10.7188 90.4688 11.0625C90.1667 11.4062 89.8125 11.6823 89.4062 11.8906C89 12.0938 88.5573 12.1953 88.0781 12.1953C87.5156 12.1953 87.0286 12.0859 86.6172 11.8672C86.2057 11.6484 85.8672 11.3568 85.6016 10.9922C85.3411 10.6276 85.1458 10.2214 85.0156 9.77344C84.8906 9.32031 84.8281 8.86198 84.8281 8.39844C84.8281 7.85677 84.9036 7.34896 85.0547 6.875C85.2057 6.40104 85.4297 5.98438 85.7266 5.625C86.0234 5.26042 86.3906 4.97656 86.8281 4.77344C87.2708 4.57031 87.7812 4.46875 88.3594 4.46875C89.0104 4.46875 89.5651 4.59896 90.0234 4.85938C90.4818 5.11979 90.8542 5.46875 91.1406 5.90625C91.4323 6.34375 91.6458 6.83594 91.7812 7.38281C91.9167 7.92969 91.9844 8.49219 91.9844 9.07031V9.59375C91.9844 10.1823 91.9453 10.7812 91.8672 11.3906C91.7943 11.9948 91.651 12.5729 91.4375 13.125C91.2292 13.6771 90.9245 14.1719 90.5234 14.6094C90.1224 15.0417 89.599 15.3854 88.9531 15.6406C88.3125 15.8906 87.5208 16.0156 86.5781 16.0156H86.4297V14.7891ZM101.133 9.40625V11.1406C101.133 12.0729 101.049 12.8594 100.883 13.5C100.716 14.1406 100.477 14.6562 100.164 15.0469C99.8516 15.4375 99.474 15.7214 99.0312 15.8984C98.5938 16.0703 98.099 16.1562 97.5469 16.1562C97.1094 16.1562 96.7057 16.1016 96.3359 15.9922C95.9661 15.8828 95.6328 15.7083 95.3359 15.4688C95.0443 15.224 94.7943 14.9062 94.5859 14.5156C94.3776 14.125 94.2188 13.651 94.1094 13.0938C94 12.5365 93.9453 11.8854 93.9453 11.1406V9.40625C93.9453 8.47396 94.0286 7.69271 94.1953 7.0625C94.3672 6.43229 94.6094 5.92708 94.9219 5.54688C95.2344 5.16146 95.6094 4.88542 96.0469 4.71875C96.4896 4.55208 96.9844 4.46875 97.5312 4.46875C97.974 4.46875 98.3802 4.52344 98.75 4.63281C99.125 4.73698 99.4583 4.90625 99.75 5.14062C100.042 5.36979 100.289 5.67708 100.492 6.0625C100.701 6.44271 100.859 6.90885 100.969 7.46094C101.078 8.01302 101.133 8.66146 101.133 9.40625ZM99.6797 11.375V9.16406C99.6797 8.65365 99.6484 8.20573 99.5859 7.82031C99.5286 7.42969 99.4427 7.09635 99.3281 6.82031C99.2135 6.54427 99.0677 6.32031 98.8906 6.14844C98.7188 5.97656 98.5182 5.85156 98.2891 5.77344C98.0651 5.6901 97.8125 5.64844 97.5312 5.64844C97.1875 5.64844 96.8828 5.71354 96.6172 5.84375C96.3516 5.96875 96.1276 6.16927 95.9453 6.44531C95.7682 6.72135 95.6328 7.08333 95.5391 7.53125C95.4453 7.97917 95.3984 8.52344 95.3984 9.16406V11.375C95.3984 11.8854 95.4271 12.3359 95.4844 12.7266C95.5469 13.1172 95.638 13.4557 95.7578 13.7422C95.8776 14.0234 96.0234 14.2552 96.1953 14.4375C96.3672 14.6198 96.5651 14.7552 96.7891 14.8438C97.0182 14.9271 97.2708 14.9688 97.5469 14.9688C97.901 14.9688 98.2109 14.901 98.4766 14.7656C98.7422 14.6302 98.9635 14.4193 99.1406 14.1328C99.3229 13.8411 99.4583 13.4688 99.5469 13.0156C99.6354 12.5573 99.6797 12.0104 99.6797 11.375ZM110.344 4.625V5.4375L105.633 16H104.109L108.812 5.8125H102.656V4.625H110.344ZM119.133 9.40625V11.1406C119.133 12.0729 119.049 12.8594 118.883 13.5C118.716 14.1406 118.477 14.6562 118.164 15.0469C117.852 15.4375 117.474 15.7214 117.031 15.8984C116.594 16.0703 116.099 16.1562 115.547 16.1562C115.109 16.1562 114.706 16.1016 114.336 15.9922C113.966 15.8828 113.633 15.7083 113.336 15.4688C113.044 15.224 112.794 14.9062 112.586 14.5156C112.378 14.125 112.219 13.651 112.109 13.0938C112 12.5365 111.945 11.8854 111.945 11.1406V9.40625C111.945 8.47396 112.029 7.69271 112.195 7.0625C112.367 6.43229 112.609 5.92708 112.922 5.54688C113.234 5.16146 113.609 4.88542 114.047 4.71875C114.49 4.55208 114.984 4.46875 115.531 4.46875C115.974 4.46875 116.38 4.52344 116.75 4.63281C117.125 4.73698 117.458 4.90625 117.75 5.14062C118.042 5.36979 118.289 5.67708 118.492 6.0625C118.701 6.44271 118.859 6.90885 118.969 7.46094C119.078 8.01302 119.133 8.66146 119.133 9.40625ZM117.68 11.375V9.16406C117.68 8.65365 117.648 8.20573 117.586 7.82031C117.529 7.42969 117.443 7.09635 117.328 6.82031C117.214 6.54427 117.068 6.32031 116.891 6.14844C116.719 5.97656 116.518 5.85156 116.289 5.77344C116.065 5.6901 115.812 5.64844 115.531 5.64844C115.188 5.64844 114.883 5.71354 114.617 5.84375C114.352 5.96875 114.128 6.16927 113.945 6.44531C113.768 6.72135 113.633 7.08333 113.539 7.53125C113.445 7.97917 113.398 8.52344 113.398 9.16406V11.375C113.398 11.8854 113.427 12.3359 113.484 12.7266C113.547 13.1172 113.638 13.4557 113.758 13.7422C113.878 14.0234 114.023 14.2552 114.195 14.4375C114.367 14.6198 114.565 14.7552 114.789 14.8438C115.018 14.9271 115.271 14.9688 115.547 14.9688C115.901 14.9688 116.211 14.901 116.477 14.7656C116.742 14.6302 116.964 14.4193 117.141 14.1328C117.323 13.8411 117.458 13.4688 117.547 13.0156C117.635 12.5573 117.68 12.0104 117.68 11.375ZM128.164 12.9219C128.164 13.6146 128.003 14.2031 127.68 14.6875C127.362 15.1667 126.93 15.5312 126.383 15.7812C125.841 16.0312 125.229 16.1562 124.547 16.1562C123.865 16.1562 123.25 16.0312 122.703 15.7812C122.156 15.5312 121.724 15.1667 121.406 14.6875C121.089 14.2031 120.93 13.6146 120.93 12.9219C120.93 12.4688 121.016 12.0547 121.188 11.6797C121.365 11.2995 121.612 10.9688 121.93 10.6875C122.253 10.4062 122.633 10.1901 123.07 10.0391C123.513 9.88281 124 9.80469 124.531 9.80469C125.229 9.80469 125.852 9.9401 126.398 10.2109C126.945 10.4766 127.375 10.8438 127.688 11.3125C128.005 11.7812 128.164 12.3177 128.164 12.9219ZM126.711 12.8906C126.711 12.4688 126.62 12.0964 126.438 11.7734C126.255 11.4453 126 11.1901 125.672 11.0078C125.344 10.8255 124.964 10.7344 124.531 10.7344C124.089 10.7344 123.706 10.8255 123.383 11.0078C123.065 11.1901 122.818 11.4453 122.641 11.7734C122.464 12.0964 122.375 12.4688 122.375 12.8906C122.375 13.3281 122.461 13.7031 122.633 14.0156C122.81 14.3229 123.06 14.5599 123.383 14.7266C123.711 14.888 124.099 14.9688 124.547 14.9688C124.995 14.9688 125.38 14.888 125.703 14.7266C126.026 14.5599 126.273 14.3229 126.445 14.0156C126.622 13.7031 126.711 13.3281 126.711 12.8906ZM127.898 7.58594C127.898 8.13802 127.753 8.63542 127.461 9.07812C127.169 9.52083 126.771 9.86979 126.266 10.125C125.76 10.3802 125.188 10.5078 124.547 10.5078C123.896 10.5078 123.315 10.3802 122.805 10.125C122.299 9.86979 121.904 9.52083 121.617 9.07812C121.331 8.63542 121.188 8.13802 121.188 7.58594C121.188 6.92448 121.331 6.36198 121.617 5.89844C121.909 5.4349 122.307 5.08073 122.812 4.83594C123.318 4.59115 123.893 4.46875 124.539 4.46875C125.19 4.46875 125.768 4.59115 126.273 4.83594C126.779 5.08073 127.174 5.4349 127.461 5.89844C127.753 6.36198 127.898 6.92448 127.898 7.58594ZM126.453 7.60938C126.453 7.22917 126.372 6.89323 126.211 6.60156C126.049 6.3099 125.826 6.08073 125.539 5.91406C125.253 5.74219 124.919 5.65625 124.539 5.65625C124.159 5.65625 123.826 5.73698 123.539 5.89844C123.258 6.05469 123.036 6.27865 122.875 6.57031C122.719 6.86198 122.641 7.20833 122.641 7.60938C122.641 8 122.719 8.34115 122.875 8.63281C123.036 8.92448 123.26 9.15104 123.547 9.3125C123.833 9.47396 124.167 9.55469 124.547 9.55469C124.927 9.55469 125.258 9.47396 125.539 9.3125C125.826 9.15104 126.049 8.92448 126.211 8.63281C126.372 8.34115 126.453 8 126.453 7.60938ZM134.742 4.5625V16H133.297V6.36719L130.383 7.42969V6.125L134.516 4.5625H134.742ZM144.539 4.60938H144.664V5.83594H144.539C143.773 5.83594 143.133 5.96094 142.617 6.21094C142.102 6.45573 141.693 6.78646 141.391 7.20312C141.089 7.61458 140.87 8.07812 140.734 8.59375C140.604 9.10938 140.539 9.63281 140.539 10.1641V11.8359C140.539 12.3411 140.599 12.7891 140.719 13.1797C140.839 13.5651 141.003 13.8906 141.211 14.1562C141.419 14.4219 141.654 14.6224 141.914 14.7578C142.18 14.8932 142.456 14.9609 142.742 14.9609C143.076 14.9609 143.372 14.8984 143.633 14.7734C143.893 14.6432 144.112 14.4635 144.289 14.2344C144.471 14 144.609 13.724 144.703 13.4062C144.797 13.0885 144.844 12.7396 144.844 12.3594C144.844 12.0208 144.802 11.6953 144.719 11.3828C144.635 11.0651 144.508 10.7839 144.336 10.5391C144.164 10.2891 143.948 10.0938 143.688 9.95312C143.432 9.80729 143.128 9.73438 142.773 9.73438C142.372 9.73438 141.997 9.83333 141.648 10.0312C141.305 10.224 141.021 10.4792 140.797 10.7969C140.578 11.1094 140.453 11.4505 140.422 11.8203L139.656 11.8125C139.729 11.2292 139.865 10.7318 140.062 10.3203C140.266 9.90365 140.516 9.5651 140.812 9.30469C141.115 9.03906 141.451 8.84635 141.82 8.72656C142.195 8.60156 142.591 8.53906 143.008 8.53906C143.576 8.53906 144.065 8.64583 144.477 8.85938C144.888 9.07292 145.227 9.35938 145.492 9.71875C145.758 10.0729 145.953 10.474 146.078 10.9219C146.208 11.3646 146.273 11.8203 146.273 12.2891C146.273 12.8255 146.198 13.3281 146.047 13.7969C145.896 14.2656 145.669 14.6771 145.367 15.0312C145.07 15.3854 144.703 15.6615 144.266 15.8594C143.828 16.0573 143.32 16.1562 142.742 16.1562C142.128 16.1562 141.591 16.0312 141.133 15.7812C140.674 15.526 140.294 15.1875 139.992 14.7656C139.69 14.3438 139.464 13.875 139.312 13.3594C139.161 12.8438 139.086 12.3203 139.086 11.7891V11.1094C139.086 10.3073 139.167 9.52083 139.328 8.75C139.49 7.97917 139.768 7.28125 140.164 6.65625C140.565 6.03125 141.12 5.53385 141.828 5.16406C142.536 4.79427 143.44 4.60938 144.539 4.60938Z" fill="#8C710F"/>
<defs>
<clipPath id="clip0_413_1345">
<rect width="20" height="20" fill="white" transform="translate(0 1)"/>
</clipPath>
</defs>
</svg>
