<svg width="20" height="20" viewBox="0 0 20 20" fill="none" xmlns="http://www.w3.org/2000/svg">
<path d="M5.16719 17.4996H1.53906V5.81602H5.16719V17.4996ZM3.35117 4.22227C2.19102 4.22227 1.25 3.26133 1.25 2.10117C1.25 1.54391 1.47137 1.00947 1.86542 0.615419C2.25947 0.221373 2.79391 0 3.35117 0C3.90844 0 4.44288 0.221373 4.83692 0.615419C5.23097 1.00947 5.45234 1.54391 5.45234 2.10117C5.45234 3.26133 4.51094 4.22227 3.35117 4.22227ZM18.7461 17.4996H15.1258V11.8121C15.1258 10.4566 15.0984 8.71836 13.2395 8.71836C11.3531 8.71836 11.0641 10.191 11.0641 11.7145V17.4996H7.43984V5.81602H10.9195V7.40977H10.9703C11.4547 6.4918 12.6379 5.52305 14.4031 5.52305C18.075 5.52305 18.75 7.94102 18.75 11.0816V17.4996H18.7461Z" fill="#6B570B"/>
</svg>
