<svg width="16" height="16" viewBox="0 0 16 16" fill="none" xmlns="http://www.w3.org/2000/svg">
<path d="M14.6666 11.2797V13.2797C14.6673 13.4654 14.6293 13.6492 14.5549 13.8193C14.4805 13.9894 14.3714 14.1421 14.2346 14.2676C14.0978 14.3932 13.9363 14.4887 13.7604 14.5482C13.5845 14.6077 13.3982 14.6298 13.2132 14.6131C11.1618 14.3902 9.19125 13.6892 7.45991 12.5664C5.84913 11.5428 4.48347 10.1772 3.45991 8.56641C2.33323 6.82721 1.63208 4.84707 1.41325 2.78641C1.39659 2.60205 1.4185 2.41625 1.47758 2.24082C1.53667 2.0654 1.63163 1.9042 1.75643 1.76749C1.88122 1.63077 2.03312 1.52155 2.20244 1.44675C2.37177 1.37196 2.55481 1.33325 2.73991 1.33307H4.73991C5.06345 1.32989 5.37711 1.44446 5.62242 1.65543C5.86774 1.8664 6.02797 2.15937 6.07325 2.47974C6.15766 3.11978 6.31421 3.74822 6.53992 4.35307C6.62961 4.59169 6.64902 4.85102 6.59585 5.10033C6.54268 5.34964 6.41916 5.57848 6.23991 5.75974L5.39325 6.60641C6.34229 8.27544 7.72422 9.65737 9.39325 10.6064L10.2399 9.75974C10.4212 9.5805 10.65 9.45697 10.8993 9.4038C11.1486 9.35063 11.408 9.37004 11.6466 9.45974C12.2514 9.68544 12.8799 9.84199 13.5199 9.92641C13.8438 9.97209 14.1395 10.1352 14.3509 10.3847C14.5624 10.6343 14.6747 10.9528 14.6666 11.2797Z" stroke="#595F63" stroke-width="1.33333" stroke-linecap="round" stroke-linejoin="round"/>
</svg>
