<svg width="80" height="80" viewBox="0 0 80 80" fill="none" xmlns="http://www.w3.org/2000/svg">
<g clip-path="url(#clip0_414_2620)">
<path d="M31.4817 38.2867C34.4899 38.2867 37.375 37.0917 39.5021 34.9646C41.6293 32.8374 42.8243 29.9524 42.8243 26.9442C42.8243 23.9359 41.6293 21.0509 39.5021 18.9237C37.375 16.7966 34.4899 15.6016 31.4817 15.6016C28.4734 15.6016 25.5884 16.7966 23.4613 18.9237C21.3341 21.0509 20.1391 23.9359 20.1391 26.9442C20.1391 29.9524 21.3341 32.8374 23.4613 34.9646C25.5884 37.0917 28.4734 38.2867 31.4817 38.2867ZM31.4817 38.2867C36.0482 38.2867 40.0385 40.0108 42.8764 42.876C44.559 44.5818 45.8177 46.6588 46.5514 48.9397M31.4817 38.2867C22.4076 38.2867 15.6021 45.0923 15.6021 54.1664V65.509H38.2872M40.5558 56.0356L50.0608 63.2404L65.5095 42.8238" stroke="#6B570B" stroke-width="4.53704"/>
</g>
<defs>
<clipPath id="clip0_414_2620">
<rect width="54.4444" height="54.4444" fill="white" transform="translate(13.3335 13.3333)"/>
</clipPath>
</defs>
</svg>
