<svg width="80" height="80" viewBox="0 0 80 80" fill="none" xmlns="http://www.w3.org/2000/svg">
<path d="M54.9456 13.1809L54.9444 13.1828L56.8383 15.8317C57.796 17.1711 57.4353 19.0396 56.048 19.9263L45.098 26.9254C43.8895 27.6979 42.2966 27.4615 41.3645 26.3715L33.73 17.4437L33.7292 17.4429C33.5779 17.2656 33.3711 17.1447 33.1424 17.0996C32.9139 17.0546 32.6769 17.0879 32.4696 17.1943L54.9456 13.1809ZM54.9456 13.1809L65.5868 14.9565L65.5869 14.9565L63.8155 25.6015L63.8145 25.6002L61.3858 22.2055C60.4959 20.9618 58.7881 20.6323 57.4994 21.4558L43.3464 30.5004L43.3454 30.5011C43.135 30.6357 42.8832 30.6897 42.6361 30.6532C42.3891 30.6167 42.1636 30.4921 42.0012 30.3024L34.1642 21.1402C33.2983 20.1278 31.8503 19.8429 30.6654 20.4518L15.8013 28.0892L15.8007 28.0895C15.5566 28.2151 15.2726 28.2385 15.0112 28.1546C14.7497 28.0708 14.5323 27.8865 14.4068 27.6424C14.2813 27.3982 14.2578 27.1142 14.3417 26.8528C14.4255 26.5915 14.6096 26.3742 14.8536 26.2486C14.8537 26.2486 14.8538 26.2485 14.854 26.2484L32.4693 17.1945L54.9456 13.1809ZM15.0996 41.0845L15.1007 41.0838L24.0174 35.9834V66.8186H15.613C15.0423 66.8186 14.578 66.3543 14.578 65.7835V41.9802C14.5785 41.7985 14.6269 41.62 14.7183 41.4629C14.8099 41.3054 14.9414 41.1748 15.0996 41.0845ZM33.3328 66.8186L33.336 37.2707L37.4463 44.4638C38.2032 45.7884 39.863 46.2911 41.2277 45.6092L44.3783 44.0348V66.8186H33.3328ZM63.224 66.8186H53.6935V39.3779L62.7617 34.842C62.9195 34.7632 63.0948 34.7261 63.271 34.7341C63.4472 34.7421 63.6184 34.795 63.7684 34.8878C63.9184 34.9805 64.0422 35.1101 64.1281 35.2641C64.2139 35.4182 64.259 35.5916 64.259 35.7679C64.259 35.768 64.259 35.768 64.259 35.768V65.7835C64.259 66.058 64.15 66.3213 63.9559 66.5154C63.7617 66.7095 63.4985 66.8186 63.224 66.8186Z" stroke="#6B570B" stroke-width="4.14008"/>
</svg>
