<svg width="80" height="80" viewBox="0 0 80 80" fill="none" xmlns="http://www.w3.org/2000/svg">
<path d="M47.2224 68.8889L46.3095 67.6784C44.2584 64.9513 43.7471 60.7826 45.0471 57.3333M32.778 68.8889L33.6909 67.6784C35.742 64.9513 36.2533 60.7826 34.9533 57.3333M25.5558 68.8889H54.4447M45.778 11.1111H34.2224C24.7469 11.1111 20.012 11.1111 16.6551 13.4626C15.413 14.3324 14.3326 15.4128 13.4629 16.6549C11.1113 20.0089 11.1113 24.7466 11.1113 34.2222C11.1113 43.6977 11.1113 48.4326 13.4629 51.7895C14.3326 53.0316 15.413 54.112 16.6551 54.9818C20.0091 57.3333 24.7469 57.3333 34.2224 57.3333H45.778C55.2535 57.3333 59.9884 57.3333 63.3453 54.9818C64.5874 54.112 65.6678 53.0316 66.5376 51.7895C68.8891 48.4355 68.8891 43.6977 68.8891 34.2222C68.8891 24.7466 68.8891 20.0118 66.5376 16.6549C65.6678 15.4128 64.5874 14.3324 63.3453 13.4626C59.9913 11.1111 55.2535 11.1111 45.778 11.1111Z" stroke="#6B570B" stroke-width="4.33333" stroke-linecap="round" stroke-linejoin="round"/>
<path d="M28.4443 45.7776C33.7541 38.2809 46.1214 37.8707 51.5554 45.7776M45.7777 28.4443C45.7777 29.9766 45.1689 31.4462 44.0854 32.5298C43.0019 33.6133 41.5323 34.2221 39.9999 34.2221C38.4675 34.2221 36.9979 33.6133 35.9144 32.5298C34.8308 31.4462 34.2221 29.9766 34.2221 28.4443C34.2221 26.9119 34.8308 25.4423 35.9144 24.3588C36.9979 23.2752 38.4675 22.6665 39.9999 22.6665C41.5323 22.6665 43.0019 23.2752 44.0854 24.3588C45.1689 25.4423 45.7777 26.9119 45.7777 28.4443Z" stroke="#6B570B" stroke-width="4.33333" stroke-linecap="round" stroke-linejoin="round"/>
</svg>
